<svg xmlns="http://www.w3.org/2000/svg" viewBox="0 0 510.792 510.792" width="512" height="512"><g fill="#FFF"><path d="M494.537 161.368L381.4 48.231c-21.64-21.64-56.85-21.64-78.489 0L16.23 334.912c-21.64 21.64-21.64 56.85 0 78.489l63.194 63.194a7.488 7.488 0 0 0 6.686 2.066c.444.082.9.13 1.367.13h320a7.5 7.5 0 0 0 0-15H270.603l223.934-223.934c10.482-10.482 16.255-24.42 16.255-39.245 0-14.824-5.773-28.761-16.255-39.244zM87.833 463.791l-60.997-60.997c-15.791-15.791-15.791-41.485 0-57.276l138.131-138.13L335.38 377.801l-85.99 85.99H87.833zM483.93 229.25L345.987 367.194 175.573 196.781 313.517 58.837c15.792-15.791 41.486-15.79 57.276 0L483.93 171.975c7.649 7.649 11.862 17.82 11.862 28.638 0 10.818-4.212 20.988-11.862 28.637zm-20.453 234.541h-24a7.5 7.5 0 0 0 0 15h24a7.5 7.5 0 0 0 0-15z"/><path d="M348.123 424.583l-16 8a7.499 7.499 0 0 0-3.354 10.062 7.499 7.499 0 0 0 10.062 3.354l16-8a7.499 7.499 0 0 0 3.354-10.062 7.498 7.498 0 0 0-10.062-3.354zm35.354 22.208h8a7.5 7.5 0 0 0 0-15h-8a7.5 7.5 0 0 0 0 15zm-2.697-52.803a7.5 7.5 0 0 0-10.606 0l-8 8a7.5 7.5 0 0 0 5.303 12.803 7.474 7.474 0 0 0 5.303-2.197l8-8a7.5 7.5 0 0 0 0-10.606zm26.694 13.803c-1.97 0-3.9.8-5.3 2.2a7.528 7.528 0 0 0-2.2 5.3c0 1.97.8 3.91 2.2 5.3 1.39 1.4 3.33 2.2 5.3 2.2 1.98 0 3.91-.8 5.31-2.2a7.56 7.56 0 0 0 2.19-5.3c0-1.97-.8-3.91-2.19-5.3a7.55 7.55 0 0 0-5.31-2.2zm5.31-37.8a7.55 7.55 0 0 0-5.31-2.2c-1.97 0-3.91.8-5.3 2.2a7.528 7.528 0 0 0-2.2 5.3c0 1.97.8 3.91 2.2 5.3 1.4 1.4 3.33 2.2 5.3 2.2 1.98 0 3.91-.8 5.31-2.2a7.56 7.56 0 0 0 2.19-5.3c0-1.97-.8-3.91-2.19-5.3z"/></g></svg>