<svg xmlns="http://www.w3.org/2000/svg" viewBox="0 0 489.633 489.633" width="512" height="512"><path d="M484.732 72.193L417.458 4.887A16.708 16.708 0 0 0 405.663 0a16.69 16.69 0 0 0-11.79 4.887L356.34 42.424l90.868 90.872 37.524-37.522c6.512-6.514 6.512-17.067 0-23.581zM331.52 67.257l90.868 90.874 13.03-13.045-90.873-90.871zm-36.642 36.628L38.874 359.902a16.83 16.83 0 0 0-4.038 6.482L.879 467.646a16.69 16.69 0 0 0 21.124 21.124l101.246-33.973a16.698 16.698 0 0 0 6.494-4.021l256.003-256.018-90.868-90.873zm-229.3 276.008c6.713 1.788 20.7 8.659 28.113 16.066 9.68 9.698 14.701 20.783 15.871 27.984l-66.407 22.551 22.423-66.601zm241.09-287.799l90.873 90.87 13.057-13.046-90.868-90.872z" fill="#fff"/></svg>